# xmcd CD database file
#
# Track frame offsets:
#	150
#	18332
#	37257
#	55395
#
# Disc length: 990 seconds
#
# Revision: 1
# Processed by: cddbd v1.5PL3 Copyright (c) Steve Scherf et al.
# Submitted via: CDex 1.50Beta7
#
DISCID=3103dc04
DTITLE=ありすwith麗奈,樹莉(浅田葉子,荒木香恵,宮村優子) - とっておきのHeart beat time
DYEAR=1996
DGENRE=Game
TTITLE0=とっておきのHeart beat time
TTITLE1=君に会えて良かった
TTITLE2=とっておきのHeart beat time (オリジナル・カラオケ)
TTITLE3=君に会えて良かった (オリジナル・カラオケ)
EXTD=YEAR: 1996
EXTT0=
EXTT1=
EXTT2=
EXTT3=
PLAYORDER=
